<svg width="32" height="32" viewBox="0 0 32 32" fill="none" xmlns="http://www.w3.org/2000/svg" role="img" aria-label="White pill in green circle favicon">
  <defs>
    <!-- วงกลมสีเขียวไล่สี -->
    <radialGradient id="circleGrad" cx="50%" cy="30%" r="70%">
      <stop offset="0%" stop-color="#22c55e"/>
      <stop offset="50%" stop-color="#16a34a"/>
      <stop offset="100%" stop-color="#15803d"/>
    </radialGradient>
    
    <!-- เม็ดยาสีขาวไล่สี -->
    <linearGradient id="pillGrad" x1="0" y1="0" x2="1" y2="1">
      <stop offset="0%" stop-color="#ffffff"/>
      <stop offset="50%" stop-color="#f8fafc"/>
      <stop offset="100%" stop-color="#e2e8f0"/>
    </linearGradient>
    
    <!-- ไฮไลต์ขาวโปร่งใส -->
    <linearGradient id="shineGrad" x1="0" y1="0" x2="1" y2="1">
      <stop offset="0%" stop-color="rgba(255,255,255,0.9)"/>
      <stop offset="100%" stop-color="rgba(255,255,255,0.1)"/>
    </linearGradient>
    
    <!-- เงาอ่อน -->
    <filter id="softShadow" x="-50%" y="-50%" width="200%" height="200%">
      <feDropShadow dx="0" dy="2" stdDeviation="3" flood-color="#15803d" flood-opacity="0.4"/>
    </filter>
    
    <!-- เงาเม็ดยา -->
    <filter id="pillShadow" x="-50%" y="-50%" width="200%" height="200%">
      <feDropShadow dx="0" dy="1" stdDeviation="2" flood-color="#000000" flood-opacity="0.3"/>
    </filter>
  </defs>

  <!-- วงกลมสีเขียว -->
  <circle cx="16" cy="16" r="15" fill="url(#circleGrad)" filter="url(#softShadow)"/>
  
  <!-- ไฮไลต์วงกลม -->
  <circle cx="16" cy="16" r="15" fill="url(#shineGrad)" opacity="0.3"/>
  
  <!-- เม็ดยาสีขาว -->
  <g transform="translate(16 16) rotate(-15) translate(-16 -16)" filter="url(#pillShadow)">
    <!-- ตัวเม็ดยา -->
    <rect x="11" y="13.5" width="10" height="5" rx="2.5" fill="url(#pillGrad)"/>
    
    <!-- เส้นแบ่งแคปซูล -->
    <rect x="15.5" y="14" width="1" height="4" fill="rgba(0,0,0,0.1)"/>
    
    <!-- ไฮไลต์เม็ดยา -->
    <path d="M12 15c2-1 4-1 6 0v0.5c-2-0.5-4-0.5-6 0V15z" fill="rgba(255,255,255,0.8)"/>
  </g>
  
  <!-- ไฮไลต์วงกลมด้านบน -->
  <ellipse cx="16" cy="11" rx="8" ry="3" fill="rgba(255,255,255,0.4)"/>
</svg>
