<svg width="480" height="120" viewBox="0 0 480 120" xmlns="http://www.w3.org/2000/svg" role="img" aria-label="Life Science Logo">
  <defs>
    <linearGradient id="grad" x1="0" y1="0" x2="1" y2="1">
      <stop offset="0%" stop-color="#0F766E"/>
      <stop offset="100%" stop-color="#115E59"/>
    </linearGradient>
  </defs>

  <!-- Mark: โล่ + Flask -->
  <g transform="translate(20,20)">
    <!-- Shield -->
    <path d="M40 0c12 6 24 6 32 6v26c0 14-10 28-32 40C18 60 8 46 8 32V6c8 0 20 0 32-6Z" fill="url(#grad)"/>
    <!-- Flask -->
    <rect x="36" y="12" width="8" height="14" rx="2" fill="#E2F6F3"/>
    <path d="M28 26h24v18a12 12 0 0 1-12 12h0A12 12 0 0 1 28 44V26Z" fill="#A7F3D0" stroke="#0F766E" stroke-width="2"/>
    <!-- QA check -->
    <path d="M48 34l-8 8-4-4" stroke="#fff" stroke-width="3" stroke-linecap="round" stroke-linejoin="round"/>
  </g>

  <!-- Wordmark -->
  <text x="110" y="60" font-family="Inter, system-ui, -apple-system, Segoe UI, Roboto" font-size="34" font-weight="700" fill="#0B1320">
    Life Science
  </text>
  <text x="112" y="88" font-family="Inter, system-ui, -apple-system, Segoe UI, Roboto" font-size="16" font-weight="500" fill="#475569">
    Standards Register • Track • Comply
  </text>
</svg>
